<?xml version="1.0" encoding="UTF-8"?>
<svg version="1.1" xmlns="http://www.w3.org/2000/svg" width="456" height="456">
<path d="M0 0 C2.70842036 2.06695238 3.49493222 3.55624923 4.375 6.8125 C5.035 6.8125 5.695 6.8125 6.375 6.8125 C6.58125 6.235 6.7875 5.6575 7 5.0625 C8.92754779 1.90833089 10.94671514 0.09318113 14.375 -1.1875 C20.7545654 -1.98276089 27.03305426 -2.15971606 32.375 1.8125 C36.29450587 6.51965777 35.7925319 11.43307208 35.6875 17.25 C35.678396 18.2517627 35.66929199 19.25352539 35.65991211 20.28564453 C35.17916536 50.00833464 35.17916536 50.00833464 32.375 52.8125 C30.60871914 52.96431257 28.83506915 53.03432672 27.0625 53.0625 C26.09699219 53.08828125 25.13148437 53.1140625 24.13671875 53.140625 C20.94753501 52.76171208 19.6316361 52.0691361 17.375 49.8125 C15.95678002 43.92143239 16.56864168 38.41368321 17.1171875 32.421875 C17.56011241 26.22092621 17.45235196 20.02644081 17.375 13.8125 C14.46899219 13.6091525 14.46899219 13.6091525 11.375 13.8125 C4.80806288 20.92668188 4.98034373 31.64852254 4.3125 40.8125 C4.15899482 42.87530515 4.00166122 44.93783027 3.83984375 47 C3.774021 47.90105469 3.70819824 48.80210937 3.64038086 49.73046875 C3.375 51.8125 3.375 51.8125 2.375 52.8125 C0.60871914 52.96431257 -1.16493085 53.03432672 -2.9375 53.0625 C-3.90300781 53.08828125 -4.86851563 53.1140625 -5.86328125 53.140625 C-9.05379885 52.7615536 -10.36967888 52.07301771 -12.625 49.8125 C-13.95885746 44.16925689 -13.45634592 39.06001245 -12.8828125 33.33203125 C-12.38268286 26.50450387 -12.55204381 19.65416962 -12.625 12.8125 C-17.39600083 13.42248045 -17.39600083 13.42248045 -20.91894531 16.41967773 C-24.4116286 23.43225361 -24.73075208 31.18571162 -25.375 38.875 C-25.49987315 40.23125212 -25.62616498 41.58737439 -25.75390625 42.94335938 C-26.05819993 46.23207187 -26.34816209 49.52138201 -26.625 52.8125 C-28.54095968 52.89383791 -30.45791932 52.95184367 -32.375 53 C-33.97601563 53.05220703 -33.97601563 53.05220703 -35.609375 53.10546875 C-38.9784875 52.7781586 -40.31340452 52.25982851 -42.625 49.8125 C-42.99169276 46.68007369 -43.09291326 43.94000092 -43 40.8125 C-42.98638428 39.90781982 -42.97276855 39.00313965 -42.95874023 38.07104492 C-42.22768437 5.01786873 -42.22768437 5.01786873 -39.625 -0.1875 C-37.8757786 -0.26892927 -36.12545458 -0.32688541 -34.375 -0.375 C-33.40046875 -0.40980469 -32.4259375 -0.44460937 -31.421875 -0.48046875 C-28.22793349 -0.14590784 -26.89619696 0.57915633 -24.625 2.8125 C-24.625 3.4725 -24.625 4.1325 -24.625 4.8125 C-24.11453125 4.379375 -23.6040625 3.94625 -23.078125 3.5 C-15.71539589 -2.13953719 -8.80414721 -2.88411719 0 0 Z " fill="#2F459C" transform="translate(84.625,211.1875)"/>
<path d="M0 0 C1.91541138 -0.10841951 3.83259773 -0.18578079 5.75 -0.25 C7.35101563 -0.31960937 7.35101563 -0.31960937 8.984375 -0.390625 C12.77214299 0.10001852 13.67733535 1.02140366 16 4 C16.42015076 6.78338623 16.42015076 6.78338623 16.30249023 9.94824219 C16.26606415 11.10400757 16.22963806 12.25977295 16.19210815 13.45056152 C16.12871246 14.62187622 16.06531677 15.79319092 16 17 C15.94586945 18.05497681 15.89173889 19.10995361 15.83596802 20.19689941 C15.64357331 23.41052114 15.40877761 26.61838212 15.16015625 29.828125 C15.07374374 30.98374939 14.98733124 32.13937378 14.89830017 33.33001709 C14.71656892 35.74346701 14.53242932 38.15673673 14.34594727 40.56982422 C14.0600568 44.28172164 13.78444894 47.99428942 13.50976562 51.70703125 C13.33133699 54.05994201 13.1523223 56.41280841 12.97265625 58.765625 C12.8491555 60.43567596 12.8491555 60.43567596 12.72315979 62.13946533 C12.60314857 63.66806183 12.60314857 63.66806183 12.48071289 65.22753906 C12.41187393 66.12764709 12.34303497 67.02775513 12.27210999 67.95513916 C12 70 12 70 11 71 C9.06791163 71.17830165 7.12728628 71.26793417 5.1875 71.3125 C4.12917969 71.34988281 3.07085937 71.38726562 1.98046875 71.42578125 C-1.62984338 70.91002237 -2.73784711 69.77702546 -5 67 C-6.175625 67.9590625 -6.175625 67.9590625 -7.375 68.9375 C-12.55260574 73.0056188 -17.59376557 72.56670535 -24 72 C-29.46531011 70.45673797 -32.28045686 66.70333142 -35.0546875 62 C-38.74529423 54.1917742 -38.0481615 42.56844533 -35.75 34.375 C-33.10349515 27.02633304 -28.8093975 21.33158291 -21.6875 17.87890625 C-18.64732414 16.88466269 -16.13210606 16.69961608 -12.9375 16.6875 C-11.91527344 16.67074219 -10.89304687 16.65398437 -9.83984375 16.63671875 C-6.67836517 17.04114448 -5.3288136 17.88340442 -3 20 C-1.50339339 17.00678678 -1.66714374 13.85275546 -1.5 10.5625 C-1.13421788 3.40265363 -1.13421788 3.40265363 0 0 Z M-15 32 C-19.29197924 37.82482897 -19.63257962 43.96393897 -19 51 C-17.45771534 55.11275909 -16.66328593 56.55780938 -13 59 C-9.93534207 58.84283805 -8.31216726 58.22297661 -5.8125 56.4375 C-1.46266778 50.58772564 -1.83317354 44.45387324 -2.41796875 37.515625 C-3.07738667 34.66552337 -4.04601756 33.15376618 -6 31 C-9.45998579 29.38533996 -11.75385739 30.16884263 -15 32 Z " fill="#2F459C" transform="translate(279,193)"/>
<path d="M0 0 C1.91541138 -0.10841951 3.83259773 -0.18578079 5.75 -0.25 C7.35101563 -0.31960937 7.35101563 -0.31960937 8.984375 -0.390625 C12.7759223 0.10050807 13.67509335 1.01719424 16 4 C16.45410156 6.84082031 16.45410156 6.84082031 16.390625 10.078125 C16.37128906 11.81835938 16.37128906 11.81835938 16.3515625 13.59375 C16.31804687 14.8003125 16.28453125 16.006875 16.25 17.25 C16.23195313 18.47203125 16.21390625 19.6940625 16.1953125 20.953125 C16.148181 23.96954078 16.08239413 26.98437491 16 30 C16.6177832 29.3807666 17.23556641 28.7615332 17.87207031 28.12353516 C19.08781738 26.90609619 19.08781738 26.90609619 20.328125 25.6640625 C21.1315332 24.8592041 21.93494141 24.0543457 22.76269531 23.22509766 C28.9714982 17.05017082 28.9714982 17.05017082 32.5625 16.875 C36.09890195 18.50718551 37.20042353 20.59365883 39 24 C40.0625 27.0625 40.0625 27.0625 40 30 C35.78237548 35.57814856 29.20135574 38.97528528 23 42 C23.78503906 42.7734375 24.57007813 43.546875 25.37890625 44.34375 C28.61003104 47.53888772 31.8090578 50.76479634 35 54 C35.78890625 54.79277344 36.5778125 55.58554688 37.390625 56.40234375 C38.02484375 57.07394531 38.6590625 57.74554688 39.3125 58.4375 C40.14201172 59.30181641 40.14201172 59.30181641 40.98828125 60.18359375 C42 62 42 62 41.765625 64.546875 C40.72180061 67.89137356 39.62177271 69.64712706 37 72 C32.83003552 72.8339929 30.62699775 72.94520822 26.94921875 70.80859375 C21.24615537 66.21292131 17.63291813 60.27813664 14 54 C12.64712794 58.05861617 12.56986751 62.03320181 12.28125 66.28515625 C12 69 12 69 11 71 C9.06318839 71.08107583 7.1254066 71.13922475 5.1875 71.1875 C4.10855469 71.22230469 3.02960938 71.25710938 1.91796875 71.29296875 C-1 71 -1 71 -2.82421875 69.67578125 C-5.76116878 65.48989565 -4.94527585 61.05941483 -4.65625 56.2265625 C-4.58319641 54.90309311 -4.58319641 54.90309311 -4.50866699 53.55288696 C-3.97533562 44.10738944 -3.35509087 34.66708934 -2.69775391 25.22949219 C-2.49582549 22.31474276 -2.30062317 19.39958496 -2.10546875 16.484375 C-1.97696771 14.62236782 -1.84807714 12.76038748 -1.71875 10.8984375 C-1.661427 10.03092865 -1.604104 9.1634198 -1.54504395 8.2696228 C-1.11440299 2.22880597 -1.11440299 2.22880597 0 0 Z " fill="#2F459C" transform="translate(306,193)"/>
<path d="M0 0 C4.90310447 4.46727296 7.00688347 9.46125045 8 16 C8.30545849 26.65439227 6.50288777 35.93051984 -0.1875 44.375 C-5.8507592 50.24009444 -11.25527823 52.12993136 -19.29443359 52.46850586 C-32.6690486 52.65422441 -32.6690486 52.65422441 -38 48 C-42.88059374 43.23320248 -44.47868018 37.68406488 -45 31 C-45.09473367 21.36084908 -43.26963915 13.44939859 -38.3125 5.1875 C-28.49037733 -4.10369712 -11.93790336 -6.63216853 0 0 Z M-24 13 C-26.84353201 17.56851825 -27.45686258 21.21885269 -27.5 26.5625 C-27.5309375 27.84253906 -27.561875 29.12257813 -27.59375 30.44140625 C-26.85894957 34.84537462 -25.50231544 36.31540579 -22 39 C-18.36622852 39.0741586 -16.64908709 38.48681532 -13.75 36.3125 C-10.29589363 31.74814515 -9.70720736 26.98502888 -9.6875 21.375 C-9.67074219 20.26898438 -9.65398437 19.16296875 -9.63671875 18.0234375 C-10.03556458 14.70401088 -10.68536829 13.36470788 -13 11 C-17.44574085 9.19767263 -20.13075322 10.39246413 -24 13 Z " fill="#2F459C" transform="translate(229,213)"/>
<path d="M0 0 C4.57283275 3.22726357 6.24422967 6.93792912 7.69921875 12.19921875 C8.71869877 24.0892009 8.17126484 34.9108765 0.51171875 44.63671875 C-5.81762582 51.09875398 -12.04374968 52.57580227 -20.86328125 52.69921875 C-28.14442166 52.61270704 -33.34793915 51.75268043 -38.80859375 46.84375 C-44.84426292 40.41145114 -44.68771879 33.05643395 -44.5546875 24.7109375 C-43.97146621 16.6445384 -41.67485201 9.09560726 -35.4765625 3.57421875 C-25.83999411 -4.06161449 -11.11098983 -6.03168019 0 0 Z M-22.30078125 12.19921875 C-27.1293563 18.36906464 -27.8325089 23.57778907 -27.30078125 31.19921875 C-26.49526914 34.28701518 -25.71378282 35.75671707 -23.55078125 38.07421875 C-21.2728304 39.42282555 -21.2728304 39.42282555 -18.30078125 39.19921875 C-14.47521235 37.92402912 -13.38703464 36.62663504 -11.30078125 33.19921875 C-8.78053988 26.77260327 -7.96249892 19.65057845 -10.48828125 13.13671875 C-12.18020028 11.05080355 -12.18020028 11.05080355 -14.67578125 10.26171875 C-17.8946989 10.18507785 -19.51605556 10.55694462 -22.30078125 12.19921875 Z " fill="#2F459C" transform="translate(171.30078125,212.80078125)"/>
<path d="M0 0 C1.43583001 -0.10836453 2.8740202 -0.18576167 4.3125 -0.25 C5.11300781 -0.29640625 5.91351563 -0.3428125 6.73828125 -0.390625 C9 0 9 0 10.78125 1.6875 C12.90156931 5.71066998 12.17670669 9.52343055 12 14 C15.63 14 19.26 14 23 14 C23.25 22.5 23.25 22.5 21 27 C17.7 27.66 14.4 28.32 11 29 C10.34 37.25 9.68 45.5 9 54 C11.97 53.34 14.94 52.68 18 52 C19 53 19 53 19.25 56.1875 C18.97990426 60.30646003 18.24090167 62.5586153 16 66 C12.61954319 68.27426614 9.56998213 68.29860122 5.5625 68.3125 C4.45003906 68.32925781 3.33757812 68.34601563 2.19140625 68.36328125 C-1.37042803 67.95783377 -3.18747786 67.19743793 -6 65 C-7.70780383 62.19199067 -8.24951481 60.10792412 -8.23046875 56.83984375 C-8.22926025 56.0509375 -8.22805176 55.26203125 -8.22680664 54.44921875 C-8.21383545 53.62035156 -8.20086426 52.79148438 -8.1875 51.9375 C-8.17674438 50.66519531 -8.17674438 50.66519531 -8.16577148 49.3671875 C-7.96652257 33.8995677 -7.96652257 33.8995677 -6 28 C-7.98 28 -9.96 28 -12 28 C-12.08114106 26.22992286 -12.13925505 24.45877902 -12.1875 22.6875 C-12.22230469 21.70136719 -12.25710938 20.71523437 -12.29296875 19.69921875 C-12 17 -12 17 -10.73828125 15.14453125 C-9 14 -9 14 -5 14 C-4.80664062 13.32453125 -4.61328125 12.6490625 -4.4140625 11.953125 C-4.02347656 10.61507812 -4.02347656 10.61507812 -3.625 9.25 C-3.36976563 8.36828125 -3.11453125 7.4865625 -2.8515625 6.578125 C-2.0790066 4.23919428 -1.16374324 2.16557438 0 0 Z " fill="#2F449C" transform="translate(391,197)"/>
<path d="M0 0 C1.91541138 -0.10841951 3.83259773 -0.18578079 5.75 -0.25 C7.35101563 -0.31960937 7.35101563 -0.31960937 8.984375 -0.390625 C12 0 12 0 14.36181641 1.7590332 C16.1347348 4.18431159 16.49557428 5.15624908 16.4609375 8.10546875 C16.45843994 8.91258301 16.45594238 9.71969727 16.45336914 10.55126953 C16.42750732 11.42122559 16.40164551 12.29118164 16.375 13.1875 C16.36138428 14.0935498 16.34776855 14.99959961 16.33374023 15.93310547 C15.68785763 44.93642712 15.68785763 44.93642712 13 53 C2.16333725 53.76674501 2.16333725 53.76674501 -1.75 51.1875 C-5.56611048 41.45641827 -2.37787761 28.06717105 -1.5 17.8125 C-1.35505343 16.08011282 -1.21051894 14.34769112 -1.06640625 12.61523438 C-0.71568541 8.40974322 -0.35939738 4.20475818 0 0 Z " fill="#2F449C" transform="translate(356,211)"/>
<path d="M0 0 C1.625 1.125 1.625 1.125 2.625 3.125 C3.13917818 6.98133638 2.90755318 8.6768122 0.8125 12 C-3.24356009 14.70404006 -6.07636731 14.68486489 -10.8515625 14.69140625 C-13.375 14.125 -13.375 14.125 -15.21875 12.3125 C-16.97598468 8.98800196 -16.28117358 6.68496762 -15.375 3.125 C-11.79299388 -1.7595538 -5.39436574 -1.9873979 0 0 Z " fill="#2F459C" transform="translate(372.375,191.875)"/>
</svg>
