<?xml version="1.0" encoding="UTF-8"?>
<svg version="1.1" xmlns="http://www.w3.org/2000/svg" width="456" height="456">
<path d="M0 0 C3 2.0625 3 2.0625 5 4 C5.66 3.360625 6.32 2.72125 7 2.0625 C10.5999611 -0.41247326 13.69227326 -1.22028148 18 -1 C22.12237571 0.05474847 24.58234882 1.37352323 27 5 C27.24291992 6.89428711 27.24291992 6.89428711 27.23046875 9.02734375 C27.22926025 9.81431641 27.22805176 10.60128906 27.22680664 11.41210938 C27.20734985 12.66217773 27.20734985 12.66217773 27.1875 13.9375 C27.18032959 14.78763672 27.17315918 15.63777344 27.16577148 16.51367188 C26.95304685 33.14085944 26.95304685 33.14085944 25 39 C23.56344146 39.08131463 22.1255517 39.13933559 20.6875 39.1875 C19.48673828 39.23970703 19.48673828 39.23970703 18.26171875 39.29296875 C16 39 16 39 14.22265625 37.71484375 C11.98822476 34.58092866 12.79079524 30.68485664 13 27 C13.03673828 26.31309082 13.07347656 25.62618164 13.11132812 24.91845703 C13.37868737 19.94366534 13.68035064 14.97168915 14 10 C9.66553994 10.94664662 9.66553994 10.94664662 6.69140625 13.98828125 C5.68822414 18.35807453 5.30384624 22.72444717 4.9375 27.1875 C4.78347495 28.99379381 4.62608752 30.79980503 4.46484375 32.60546875 C4.399021 33.40106201 4.33319824 34.19665527 4.26538086 35.01635742 C4 37 4 37 3 39 C1.56416999 39.10836453 0.1259798 39.18576167 -1.3125 39.25 C-2.11300781 39.29640625 -2.91351563 39.3428125 -3.73828125 39.390625 C-6 39 -6 39 -7.63671875 37.34179688 C-9.37255742 34.36003389 -9.26657543 32.56807138 -9.07421875 29.140625 C-9.01943359 28.02558594 -8.96464844 26.91054687 -8.90820312 25.76171875 C-8.83537109 24.60285156 -8.76253906 23.44398438 -8.6875 22.25 C-8.5956543 20.48849609 -8.5956543 20.48849609 -8.50195312 18.69140625 C-8.34879544 15.79319164 -8.18095765 12.89658998 -8 10 C-10.45173725 10.23216352 -10.45173725 10.23216352 -13 11 C-15.9454631 16.81828026 -16.6180146 22.50077362 -17.125 28.9375 C-17.88818479 37.88818479 -17.88818479 37.88818479 -19 39 C-20.99609375 39.16796875 -20.99609375 39.16796875 -23.4375 39.1875 C-24.24058594 39.20167969 -25.04367188 39.21585938 -25.87109375 39.23046875 C-28 39 -28 39 -30 37 C-30.24291992 35.14331055 -30.24291992 35.14331055 -30.23046875 32.88671875 C-30.22926025 32.0565625 -30.22805176 31.22640625 -30.22680664 30.37109375 C-30.21383545 29.48550781 -30.20086426 28.59992188 -30.1875 27.6875 C-30.18032959 26.78773438 -30.17315918 25.88796875 -30.16577148 24.9609375 C-29.94826479 6.94171658 -29.94826479 6.94171658 -28 0 C-26.741875 -0.04125 -25.48375 -0.0825 -24.1875 -0.125 C-23.47980469 -0.14820313 -22.77210937 -0.17140625 -22.04296875 -0.1953125 C-20 0 -20 0 -17 2 C-17 2.66 -17 3.32 -17 4 C-16.34 4 -15.68 4 -15 4 C-15 3.34 -15 2.68 -15 2 C-9.39826371 -0.91757098 -6.19156104 -1.49795831 0 0 Z " fill="#2F459C" transform="translate(122,215)"/>
<path d="M0 0 C3.10937214 0.62879696 4.17075537 1.9424065 6.10546875 4.42578125 C6.40771484 7.56347656 6.40771484 7.56347656 6.12890625 11.25390625 C6.08423218 11.91622253 6.03955811 12.57853882 5.99353027 13.26092529 C5.84340256 15.40134075 5.66271412 17.53788217 5.48046875 19.67578125 C5.37114235 21.1340091 5.26323189 22.59234379 5.15673828 24.05078125 C4.44165075 33.54317853 3.56038957 43.01522958 2.10546875 52.42578125 C0.66838785 52.48001072 -0.76928587 52.51867848 -2.20703125 52.55078125 C-3.00753906 52.57398438 -3.80804688 52.5971875 -4.6328125 52.62109375 C-6.89453125 52.42578125 -6.89453125 52.42578125 -9.89453125 50.42578125 C-10.53390625 50.92078125 -11.17328125 51.41578125 -11.83203125 51.92578125 C-15.96342999 53.94932349 -19.3712319 54.13578767 -23.89453125 53.42578125 C-28.92845042 51.00204239 -30.80562796 48.52270527 -32.89453125 43.42578125 C-33.23272764 40.73148336 -33.41959336 38.36064034 -33.39453125 35.67578125 C-33.38953613 34.97420898 -33.38454102 34.27263672 -33.37939453 33.54980469 C-33.17260126 27.34600656 -31.72308775 22.41911022 -27.89453125 17.42578125 C-23.93379068 13.73509117 -20.35558423 12.88493505 -15.140625 12.30859375 C-12.40940844 12.45109201 -10.37069568 13.30302128 -7.89453125 14.42578125 C-7.80365234 13.03552734 -7.80365234 13.03552734 -7.7109375 11.6171875 C-7.62714844 10.41964844 -7.54335938 9.22210938 -7.45703125 7.98828125 C-7.37582031 6.79332031 -7.29460937 5.59835938 -7.2109375 4.3671875 C-6.66733127 -0.68633704 -4.69042866 0.25520156 0 0 Z M-17.70703125 24.73828125 C-20.58725025 28.83122404 -20.39865654 33.62818891 -19.89453125 38.42578125 C-18.56282816 41.40562292 -18.56282816 41.40562292 -16.89453125 43.42578125 C-13.98414583 43.40052941 -13.98414583 43.40052941 -10.89453125 42.42578125 C-7.49097673 37.88770855 -7.12627027 32.91335968 -7.89453125 27.42578125 C-8.84441316 25.2114954 -8.84441316 25.2114954 -9.89453125 23.42578125 C-14.06173532 23.03957256 -14.06173532 23.03957256 -17.70703125 24.73828125 Z " fill="#2F459C" transform="translate(270.89453125,201.57421875)"/>
<path d="M0 0 C1.43655854 -0.08131463 2.8744483 -0.13933559 4.3125 -0.1875 C5.51326172 -0.23970703 5.51326172 -0.23970703 6.73828125 -0.29296875 C9 0 9 0 10.7746582 1.23364258 C12.32545531 3.46915106 12.34742113 4.74475054 12.29296875 7.44921875 C12.28330078 8.29677734 12.27363281 9.14433594 12.26367188 10.01757812 C12.23853516 10.89865234 12.21339844 11.77972656 12.1875 12.6875 C12.17396484 13.58017578 12.16042969 14.47285156 12.14648438 15.39257812 C12.11114079 17.59566166 12.06180493 19.79752582 12 22 C12.61488281 21.36191406 13.22976563 20.72382813 13.86328125 20.06640625 C15.07564453 18.82697266 15.07564453 18.82697266 16.3125 17.5625 C17.11300781 16.73878906 17.91351563 15.91507813 18.73828125 15.06640625 C21 13 21 13 24 12 C26.61599122 14.34768443 28.67189917 16.27088705 30.125 19.5 C30 22 30 22 28 24.5625 C24.78626978 27.17365581 21.60921025 28.98684381 18 31 C18.39904541 31.39791748 18.79809082 31.79583496 19.20922852 32.20581055 C21.0094321 34.01812254 22.78581306 35.85214022 24.5625 37.6875 C25.50512695 38.62625977 25.50512695 38.62625977 26.46679688 39.58398438 C31.00652654 44.32217217 31.00652654 44.32217217 30.97265625 47.83984375 C29.25966303 51.64420218 29.25966303 51.64420218 27 53 C23.8989135 53.24322247 22.73488319 53.26764803 20 52 C16.50639139 48.80424789 13.13109704 45.26219408 11 41 C10.34 44.63 9.68 48.26 9 52 C7.576875 52.061875 6.15375 52.12375 4.6875 52.1875 C3.48673828 52.23970703 3.48673828 52.23970703 2.26171875 52.29296875 C0 52 0 52 -1.6237793 50.82617188 C-6.84906498 43.89249493 -2.26431816 25.77026289 -1.5 17.1875 C-1.35496105 15.51241367 -1.21042649 13.83728359 -1.06640625 12.16210938 C-0.71673676 8.1075462 -0.36029448 4.05363226 0 0 Z " fill="#2F459C" transform="translate(284,202)"/>
<path d="M0 0 C3.77174045 3.48885991 5.25711453 6.06655902 5.81640625 11.23828125 C6.1038339 19.1286338 5.41617053 26.76330464 0.07421875 32.96875 C-5.67433665 38.07857702 -11.22186472 38.70776094 -18.62109375 38.5625 C-23.69380473 38.12199321 -26.40563847 36.49559354 -29.8125 32.8125 C-33.752001 26.97620222 -33.03058675 20.09221954 -32.5 13.3125 C-31.31283752 8.71869735 -29.51887659 5.41870887 -26.3125 1.9375 C-17.77602093 -2.99468791 -9.1383455 -4.40598801 0 0 Z M-17.875 10.0625 C-20.31081286 14.93412571 -20.34637264 19.95976496 -19.5 25.3125 C-18.25270201 27.23382412 -18.25270201 27.23382412 -16.5 28.3125 C-13.61835744 28.16841787 -12.02418931 27.72436303 -9.75 25.9375 C-7.29343087 22.74396013 -7.33830418 19.62578786 -7.3125 15.75 C-7.29832031 14.77933594 -7.28414062 13.80867188 -7.26953125 12.80859375 C-7.24792254 10.13851084 -7.24792254 10.13851084 -9.5 8.3125 C-13.18239374 7.75213574 -14.84641761 7.83091298 -17.875 10.0625 Z " fill="#2F449C" transform="translate(186.5,216.6875)"/>
<path d="M0 0 C4.66593124 4.43263468 5.66589967 8.52055272 5.875 14.75 C5.61484502 22.99578185 3.52404187 29.62477821 -2.5 35.375 C-8.50553342 39.05185719 -14.58276253 39.07730645 -21.5 38.375 C-26.88923649 36.54650905 -29.96108206 33.45283589 -32.5 28.375 C-33.65142142 10.26225537 -33.65142142 10.26225537 -28.0234375 3.63671875 C-20.32043606 -3.73213423 -9.52581348 -4.42269911 0 0 Z M-18.5 11.375 C-20.79349209 17.14788741 -20.69234699 21.6505384 -18.5 27.375 C-16.52 27.705 -14.54 28.035 -12.5 28.375 C-9.01220258 24.09963542 -7.35307973 21.96445954 -7.3125 16.4375 C-7.29123047 15.12458984 -7.29123047 15.12458984 -7.26953125 13.78515625 C-7.33336651 11.11255665 -7.33336651 11.11255665 -9.5 8.375 C-13.78762717 7.82764334 -15.79424525 7.98520613 -18.5 11.375 Z " fill="#2F459C" transform="translate(228.5,216.625)"/>
<path d="M0 0 C3.0625 0.1875 3.0625 0.1875 5.0625 2.1875 C5.33241906 4.87589385 5.14987357 7.47891936 5.0625 10.1875 C7.7025 10.1875 10.3425 10.1875 13.0625 10.1875 C14.37473496 14.12420488 13.30546256 16.31238144 12.0625 20.1875 C9.4225 20.1875 6.7825 20.1875 4.0625 20.1875 C4.0625 26.4575 4.0625 32.7275 4.0625 39.1875 C7.0325 38.6925 7.0325 38.6925 10.0625 38.1875 C10.66444175 45.41080097 10.66444175 45.41080097 8.125 48.6875 C4.05857837 50.67921672 0.51984407 50.87324524 -3.9375 50.1875 C-6.53382601 49.25451897 -7.65289657 48.62251093 -9.171875 46.30078125 C-12.02872983 38.41527889 -9.13517618 28.30389483 -7.9375 20.1875 C-9.5875 20.1875 -11.2375 20.1875 -12.9375 20.1875 C-12.1875 12.4375 -12.1875 12.4375 -9.9375 10.1875 C-8.9475 10.1875 -7.9575 10.1875 -6.9375 10.1875 C-6.73253906 9.54941406 -6.52757812 8.91132813 -6.31640625 8.25390625 C-6.04699219 7.42761719 -5.77757812 6.60132813 -5.5 5.75 C-5.09974609 4.51443359 -5.09974609 4.51443359 -4.69140625 3.25390625 C-3.54613978 0.11480801 -3.49837451 0.2233005 0 0 Z " fill="#2F449C" transform="translate(349.9375,204.8125)"/>
<path d="M0 0 C7.23545372 -0.36177269 7.23545372 -0.36177269 10.4765625 1.171875 C15.617204 7.3406448 11.39671805 23.94388665 10.71240234 31.47949219 C10.47846984 33.98668358 10.24155623 36.49353286 10 39 C8.37536158 39.05395478 6.75021459 39.09277195 5.125 39.125 C4.22007812 39.14820313 3.31515625 39.17140625 2.3828125 39.1953125 C0 39 0 39 -2 37 C-3.10226836 24.72915958 -1.33693555 12.18886987 0 0 Z " fill="#2F449C" transform="translate(321,215)"/>
<path d="M0 0 C0.66 0.66 1.32 1.32 2 2 C1.8125 5.5 1.8125 5.5 1 9 C-3.06849409 11.71232939 -5.16476784 11.30699887 -10 11 C-12 9 -12 9 -12.375 6.0625 C-12 3 -12 3 -10.5 1.125 C-6.7947264 -0.54237312 -4.05436831 -0.32696519 0 0 Z " fill="#2F449C" transform="translate(333,201)"/>
</svg>
